<?xml version="1.0" encoding="UTF-8" standalone="no"?>
<svg width="31px" height="28px" viewBox="0 0 31 28" version="1.1" xmlns="http://www.w3.org/2000/svg" xmlns:xlink="http://www.w3.org/1999/xlink">
    <!-- Generator: Sketch 43.2 (39069) - http://www.bohemiancoding.com/sketch -->
    <title>Chart</title>
    <desc>Created with Sketch.</desc>
    <defs></defs>
    <g id="Re-Design-2-14" stroke="none" stroke-width="1" fill="none" fill-rule="evenodd">
        <g id="HIFI-3:-Workouts" transform="translate(-304.000000, -1072.000000)" fill="#FFFFFF">
            <g id="Global-Nav" transform="translate(0.000000, 1036.000000)">
                <g id="Icons" transform="translate(49.001000, 34.001000)">
                    <path d="M284.176,2 C285.059,2 285.784,2.672 285.874,3.535 L285.874,3.898 L285.874,27.193 L285.874,27.391 C285.823,28.293 285.079,29.01 284.171,29.01 L281.705,29.01 C280.791,29.01 280.045,28.288 280,27.381 L280,27.204 L280,3.805 L280,3.628 C280.046,2.721 280.791,2 281.705,2 L284.176,2 Z M268.128,19.803 C268.995,19.818 269.704,20.482 269.794,21.335 L269.794,21.71 L269.794,27.107 L269.794,27.482 C269.702,28.341 268.978,29.012 268.098,29.012 L265.626,29.012 C264.693,29.012 263.935,28.257 263.92,27.323 L263.92,27.265 L263.92,21.551 L263.92,21.491 C263.935,20.567 264.677,19.819 265.598,19.803 L265.657,19.803 L268.069,19.803 L268.128,19.803 Z M276.245,10.902 C277.132,10.96 277.835,11.706 277.834,12.614 L277.834,27.292 C277.834,28.23 277.085,28.994 276.157,29.009 L276.098,29.009 L273.692,29.009 L273.633,29.009 C272.743,28.994 272.019,28.293 271.961,27.41 L271.961,27.175 L271.961,12.731 L271.961,12.497 C272.018,11.642 272.695,10.959 273.545,10.902 L273.78,10.902 L276.012,10.902 L276.245,10.902 Z M260.088,24.383 C260.955,24.397 261.663,25.062 261.755,25.914 L261.755,26.289 L261.755,27.107 L261.755,27.482 C261.663,28.341 260.939,29.012 260.059,29.012 L257.587,29.012 C256.654,29.012 255.896,28.257 255.881,27.323 L255.881,27.265 L255.881,26.13 L255.881,26.07 C255.895,25.146 256.638,24.399 257.558,24.383 L257.617,24.383 L260.028,24.383 L260.088,24.383 Z" id="Chart"></path>
                </g>
            </g>
        </g>
    </g>
</svg>