<?xml version="1.0" encoding="UTF-8" standalone="no"?>
<svg width="640px" height="502px" viewBox="0 0 640 502" version="1.1" xmlns="http://www.w3.org/2000/svg" xmlns:xlink="http://www.w3.org/1999/xlink">
    <!-- Generator: Sketch 43.2 (39069) - http://www.bohemiancoding.com/sketch -->
    <title>Stats</title>
    <desc>Created with Sketch.</desc>
    <defs>
        <linearGradient x1="50%" y1="0%" x2="50%" y2="100%" id="linearGradient-1">
            <stop stop-color="#FBDA61" offset="0%"></stop>
            <stop stop-color="#F76B1C" offset="100%"></stop>
        </linearGradient>
    </defs>
    <g id="Re-Design-2-14" stroke="none" stroke-width="1" fill="none" fill-rule="evenodd">
        <g id="HIFI-2:-Dashboard" transform="translate(0.000000, -128.000000)">
            <g id="Stats" transform="translate(0.000000, 128.000000)">
                <rect id="Bg" fill="#082A83" x="0" y="0" width="640" height="502"></rect>
                <g id="Button-+-DETAILS" transform="translate(409.000000, 423.819672)">
                    <path d="M30,1 L170,1 C186.054049,1 199,11.6538809 199,24.6885246 C199,37.7231682 186.054049,48.3770492 170,48.3770492 L30,48.3770492 C13.9453002,48.3770492 1,37.7234585 1,24.6885246 C1,11.6535907 13.9453002,1 30,1 Z" id="Button" stroke="#F9F9F9" stroke-width="2"></path>
                    <text id="DETAILS" font-family="-apple-system, BlinkMacSystemFont, sans-serif" font-size="24" font-weight="normal" letter-spacing="1.5" fill="#F9F9F9">
                        <tspan x="51" y="32.8754098">DETAILS</tspan>
                    </text>
                </g>
                <g id="Graph" transform="translate(25.000000, 88.878689)">
                    <path d="M55,60.0754098 L585,60.0754098 L585,60.8983607 L55,60.8983607 L55,60.0754098 Z M55,159.652459 L585,159.652459 L585,160.47541 L55,160.47541 L55,159.652459 Z M55,110.27541 L585,110.27541 L585,111.098361 L55,111.098361 L55,110.27541 Z M55,10.6983607 L585,10.6983607 L585,11.5213115 L55,11.5213115 L55,10.6983607 Z M55,209.029508 L585,209.029508 L585,209.852459 L55,209.852459 L55,209.029508 Z M55,258.406557 L585,258.406557 L585,259.229508 L55,259.229508 L55,258.406557 Z" id="Shape" fill="#2A2A2A"></path>
                    <g id="Values" font-size="20" font-family="-apple-system, BlinkMacSystemFont, sans-serif" font-weight="normal">
                        <text id="1KK" fill="#F9F9F9">
                            <tspan x="0" y="19">1KK</tspan>
                        </text>
                        <text id="80K" fill="#F9F9F9">
                            <tspan x="0" y="68.3770492">80K</tspan>
                        </text>
                        <text id="60K" fill="#F9F9F9">
                            <tspan x="0" y="117.754098">60K</tspan>
                        </text>
                        <text id="40K" fill="#F9F9F9">
                            <tspan x="0" y="167.954098">40K</tspan>
                        </text>
                        <text id="20K" fill="#F9F9F9">
                            <tspan x="0" y="217.331148">20K</tspan>
                        </text>
                        <text id="0" fill="#F9F9F9">
                            <tspan x="24" y="266.708197">0</tspan>
                        </text>
                        <text id="MON" fill="#E6E6E6">
                            <tspan x="51" y="293.042623">MON</tspan>
                        </text>
                        <text id="TUE" fill="#E6E6E6">
                            <tspan x="138" y="293.042623">TUE</tspan>
                        </text>
                        <text id="WED" fill="#E6E6E6">
                            <tspan x="218" y="293.042623">WED</tspan>
                        </text>
                        <text id="THU" fill="#E6E6E6">
                            <tspan x="302" y="293.042623">THU</tspan>
                        </text>
                        <text id="FRI" fill="#E6E6E6">
                            <tspan x="387" y="293.042623">FRI</tspan>
                        </text>
                        <text id="SAT" fill="#E6E6E6">
                            <tspan x="467" y="293.042623">SAT</tspan>
                        </text>
                        <text id="SUN" fill="#E6E6E6">
                            <tspan x="547" y="293.042623">SUN</tspan>
                        </text>
                    </g>
                    <g id="Lines" transform="translate(55.000000, 15.636066)">
                        <polygon id="Shape" fill="url(#linearGradient-1)" points="0 72.4188492 40 72.4188492 40 242.769669 0 242.769669"></polygon>
                        <polygon id="Shape" fill="url(#linearGradient-1)" points="81 101.222128 121 101.222128 121 242.769669 81 242.769669"></polygon>
                        <polygon id="Shape" fill="url(#linearGradient-1)" points="163 171.996721 203 171.996721 203 242.770492 163 242.770492"></polygon>
                        <polygon id="Shape" fill="url(#linearGradient-1)" points="245 0.822127869 285 0.822127869 285 242.769669 245 242.769669"></polygon>
                        <polygon id="Shape" fill="url(#linearGradient-1)" points="327 72.4188492 367 72.4188492 367 242.769669 327 242.769669"></polygon>
                        <polygon id="Shape" fill="url(#linearGradient-1)" points="409 101.222128 449 101.222128 449 242.769669 409 242.769669"></polygon>
                        <polygon id="Shape" fill="#E9E9E9" points="490 72.4188492 530 72.4188492 530 242.769669 490 242.769669"></polygon>
                    </g>
                </g>
                <g id="Calendar-+-THIS--WEEK-+-Shape" transform="translate(228.000000, 36.209836)" fill="#FFFFFF">
                    <g id="Calendar" transform="translate(0.000000, 1.645902)">
                        <path d="M7.826,13.9457246 C8.509,13.9457246 9.063,14.4090459 9.063,14.9818197 L9.063,16.516623 C9.063,17.0885738 8.509,17.5518951 7.826,17.5518951 L5.993,17.5518951 C5.31,17.5518951 4.756,17.0885738 4.756,16.516623 L4.756,14.9818197 C4.756,14.4090459 5.309,13.9457246 5.993,13.9457246 L7.826,13.9457246 Z M13.203,13.9457246 C13.886,13.9457246 14.44,14.4090459 14.44,14.9818197 L14.44,16.516623 C14.44,17.0885738 13.886,17.5518951 13.203,17.5518951 L11.373,17.5518951 C10.689,17.5518951 10.133,17.0885738 10.133,16.516623 L10.133,14.9818197 C10.133,14.4090459 10.689,13.9457246 11.373,13.9457246 L13.203,13.9457246 Z M13.203,9.44418361 C13.886,9.44418361 14.44,9.90750492 14.44,10.4802787 L14.44,12.015082 C14.44,12.5853869 13.886,13.051177 13.203,13.051177 L11.373,13.051177 C10.689,13.051177 10.133,12.5845639 10.133,12.015082 L10.133,10.4802787 C10.133,9.90750492 10.689,9.44418361 11.373,9.44418361 L13.203,9.44418361 Z M18.583,9.44418361 C19.266,9.44418361 19.819,9.90750492 19.82,10.4802787 L19.82,12.015082 C19.82,12.5853869 19.267,13.051177 18.583,13.051177 L16.75,13.051177 C16.066,13.051177 15.513,12.5845639 15.513,12.015082 L15.513,10.4802787 C15.513,9.90750492 16.066,9.44418361 16.75,9.44418361 L18.583,9.44418361 Z M18.583,13.9457246 C19.266,13.9457246 19.819,14.4090459 19.82,14.9818197 L19.82,16.516623 C19.82,17.0885738 19.267,17.5518951 18.583,17.5518951 L16.75,17.5518951 C16.066,17.5518951 15.513,17.0885738 15.513,16.516623 L15.513,14.9818197 C15.513,14.4090459 16.066,13.9457246 16.75,13.9457246 L18.583,13.9457246 Z M23.959,13.9457246 C24.643,13.9457246 25.196,14.4090459 25.196,14.9818197 L25.196,16.516623 C25.196,17.0885738 24.642,17.5518951 23.959,17.5518951 L22.126,17.5518951 C21.445,17.5518951 20.889,17.0885738 20.889,16.516623 L20.889,14.9818197 C20.889,14.4090459 21.445,13.9457246 22.126,13.9457246 L23.959,13.9457246 Z M23.959,9.44418361 C24.643,9.44418361 25.196,9.90750492 25.196,10.4802787 L25.196,12.015082 C25.196,12.5853869 24.642,13.051177 23.959,13.051177 L22.126,13.051177 C21.445,13.051177 20.889,12.5845639 20.889,12.015082 L20.889,10.4802787 C20.889,9.90750492 21.445,9.44418361 22.126,9.44418361 L23.959,9.44418361 Z" id="Shape"></path>
                        <path d="M27.913,0.288032787 L26.588,0.288032787 C26.077,0.288032787 25.665,0.635318033 25.665,1.06325246 L25.665,2.88444262 C25.665,4.22996721 24.36,5.3195541 22.756,5.3195541 C21.149,5.3195541 19.847,4.22914426 19.847,2.88444262 L19.847,1.06325246 C19.847,0.635318033 19.432,0.288032787 18.921,0.288032787 L11.214,0.288032787 C10.703,0.288032787 10.288,0.635318033 10.288,1.06325246 L10.288,2.88444262 C10.288,4.22996721 8.986,5.3195541 7.382,5.3195541 C5.775,5.3195541 4.473,4.22914426 4.473,2.88444262 L4.473,1.06325246 C4.473,0.635318033 4.058,0.288032787 3.547,0.288032787 L2.087,0.288032787 C0.938,0.288032787 0.006,1.06819016 0.006,2.03104262 L0.006,21.3168951 C0.006,22.2789246 0.938,23.059082 2.087,23.059082 L27.912,23.059082 C29.061,23.059082 29.993,22.2789246 29.993,21.3168951 L29.993,2.03104262 C29.994,1.06819016 29.062,0.288032787 27.913,0.288032787 L27.913,0.288032787 Z M27.221,19.9614951 C27.221,19.9779541 27.221,19.9944131 27.218,20.0108721 C27.19,20.4034197 26.811,20.715318 26.343,20.7342459 C26.326,20.7367148 26.312,20.7367148 26.295,20.7367148 C26.281,20.7367148 26.264,20.7367148 26.25,20.7342459 L3.754,20.7342459 C3.737,20.7367148 3.723,20.7367148 3.706,20.7367148 C3.692,20.7367148 3.675,20.7367148 3.658,20.7342459 C3.186,20.715318 2.808,20.3960131 2.783,20.0018197 L2.783,19.9614951 L2.783,19.9211705 L2.783,7.30121967 L2.783,7.26089508 L2.783,7.22303934 C2.808,6.81156393 3.212,6.48732131 3.706,6.48732131 L26.295,6.48732131 C26.786,6.48732131 27.19,6.80662623 27.218,7.21069508 C27.221,7.2271541 27.221,7.24361311 27.221,7.26007213 C27.221,7.279 27.221,7.29299016 27.218,7.30944918 L27.218,19.9104721 C27.221,19.928577 27.221,19.9450361 27.221,19.9614951 L27.221,19.9614951 Z" id="Shape"></path>
                    </g>
                    <text id="THIS--WEEK" font-family="-apple-system, BlinkMacSystemFont, sans-serif" font-size="24" font-weight="normal">
                        <tspan x="53" y="23">THIS  WEEK</tspan>
                    </text>
                    <polyline id="Shape" points="200.001 11.3048754 207.995 18.1090328 215.997 11.2974689 214.319 9.86882623 207.995 15.2517475 201.679 9.87623279 200.001 11.3048754"></polyline>
                </g>
                <text id="Workouts" font-family="-apple-system, BlinkMacSystemFont, sans-serif" font-size="48" font-weight="normal" fill="#FFFFFF">
                    <tspan x="40" y="461">Workouts</tspan>
                </text>
            </g>
        </g>
    </g>
</svg>